<?xml version="1.0" encoding="UTF-8" standalone="no"?>
<!-- Created with Inkscape (http://www.inkscape.org/) -->

<svg
   width="78.67321mm"
   height="78.827293mm"
   viewBox="0 0 78.67321 78.827293"
   version="1.1"
   id="svg1"
   xml:space="preserve"
   xmlns:xlink="http://www.w3.org/1999/xlink"
   xmlns="http://www.w3.org/2000/svg"
   xmlns:svg="http://www.w3.org/2000/svg"><defs
     id="defs1"><linearGradient
       id="linearGradient73"><stop
         style="stop-color:#f67d7e;stop-opacity:1;"
         offset="0.22082019"
         id="stop74" /><stop
         style="stop-color:#f67d7e;stop-opacity:0;"
         offset="1"
         id="stop75" /></linearGradient><radialGradient
       xlink:href="#linearGradient73"
       id="radialGradient75"
       cx="73.355209"
       cy="150.83392"
       fx="73.355209"
       fy="150.83392"
       r="35.557774"
       gradientTransform="matrix(3.0750082,0,0,2.4040548,-152.21266,-211.77909)"
       gradientUnits="userSpaceOnUse" /></defs><g
     id="layer1"
     transform="translate(-34.0186,-111.42029)"><g
       id="g76"><rect
         style="fill:#000000;fill-opacity:0;stroke-width:0.379255;stroke-dasharray:none"
         id="rect75"
         width="78.67321"
         height="78.67321"
         x="34.0186"
         y="111.49733" /><path
         id="path63"
         style="fill:url(#radialGradient75);fill-opacity:1;stroke-width:0.264583"
         d="m 73.804933,111.42028 c -12.00743,5.92473 -23.997769,11.88409 -36.0075,17.80415 v 43.36428 l 35.71358,17.65887 35.401967,-17.50488 v -43.9632 z m -1e-5,2.69441 1.59629,0.78962 -4.19458,2.10478 -1.61489,-0.81029 z m 3.89641,1.92753 6.65592,3.29231 -4.25866,2.13733 -6.60837,-3.31659 z m -10.4097,1.2945 1.63142,0.81855 -6.60683,3.31608 -1.67949,-0.84284 z m 3.915,1.96474 6.60838,3.31607 -6.60683,3.31608 -6.60837,-3.31659 z m 15.45074,1.17047 4.30361,2.12907 -4.30671,2.16111 -4.27261,-2.14406 z m -28.32024,1.29397 1.69551,0.85112 -6.58668,3.30573 -1.74356,-0.87487 z m 34.92397,1.9725 6.722587,3.32537 -4.371307,2.19418 -6.67452,-3.34966 z m -30.94487,0.0248 6.60786,3.31659 -6.58617,3.30522 -6.60838,-3.31607 z m 17.78237,5.1e-4 4.27261,2.14406 -6.60736,3.31607 -4.2726,-2.14405 z m -30.69632,2.42208 1.7601,0.88315 -6.90294,3.46439 -1.82315,-0.90176 z m 37.25199,0.86816 6.67453,3.34967 -6.60683,3.31608 -6.67453,-3.34967 z m 15.629537,1.14774 2.40605,1.1901 -4.43693,2.1947 -2.356967,-1.18287 z m -48.837847,0.0134 6.60838,3.31608 -6.83885,3.43235 -6.65593,-3.29231 z m 17.76171,0.0109 4.2726,2.14405 -6.58668,3.30522 -4.27208,-2.14405 z m 6.55619,3.29023 6.67453,3.34967 -6.58668,3.30522 -6.67453,-3.34966 z m 17.84852,0.0336 2.34043,1.17461 -6.6549,3.29179 -2.29236,-1.15032 z m -33.27445,1.12758 4.27208,2.14405 -6.7908,3.40807 -4.30361,-2.12856 z m -22.26996,0.59015 2.11098,1.04437 v 5.07721 l -2.11099,-1.05936 z m 66.575257,0.006 v 4.86275 l -2.19883,1.10381 v -4.87877 z m -62.259767,2.12907 6.88331,3.40496 -1e-5,5.14284 -6.8833,-3.45457 z m 57.856427,0.0491 -1e-5,4.89479 -6.793377,3.4091 v -4.94389 z m -33.346287,0.51625 6.67453,3.34967 -6.72621,3.3755 -6.72259,-3.32538 z m 17.82836,0.0439 2.27584,1.14205 -6.63474,3.28198 -2.22777,-1.11828 z m -33.25068,3.88608 4.3186,2.13629 v 5.18987 l -4.31859,-2.16731 z m 39.7707,0.005 v 4.95939 l -4.31911,2.16783 -10e-6,-4.99091 z m -15.39027,0.56121 2.21123,1.10949 -6.74222,3.3352 -2.17868,-1.07745 z m 28.791517,0.69712 v 7.95248 l -2.19883,1.10381 v -7.953 z m -66.575257,0.19378 2.11098,1.05937 -1e-5,7.88686 -2.11097,-1.05937 z m 19.92642,1.76992 6.70348,3.31607 v 5.25395 l -6.70347,-3.36414 z m 26.72396,0.005 v 5.00693 l -6.65851,3.34139 1e-5,-5.05446 z m 15.521527,0.24133 v 7.953 l -6.793377,3.4091 v -7.95301 z m -57.856407,0.14986 6.8833,3.45457 v 7.88685 l -6.8833,-3.45456 z m 33.47185,3.99304 v 5.07049 l -2.33939,1.17409 v -5.08754 z m -8.95293,0.0176 2.33938,1.15703 v 5.28702 l -2.33939,-1.17409 z m 24.33959,0.35501 v 7.95301 l -4.31911,2.16783 -10e-6,-7.95301 z m -39.7707,0.19534 4.3186,2.16731 v 7.88686 l -4.3186,-2.16731 z m 33.24707,3.07888 v 7.95301 l -6.65851,3.34139 v -7.95248 z m -26.72395,0.19482 6.70346,3.36414 1e-5,7.88686 -6.70347,-3.36414 z m 46.648827,0.7829 v 7.953 l -2.19883,1.10382 v -7.95353 z m -66.575257,0.12816 2.11098,1.05936 v 7.85535 l -2.11099,-1.05937 z m 62.171907,2.08152 v 7.95352 l -6.793377,3.4091 v -7.95352 z m -57.856417,0.0842 6.88331,3.45458 v 7.85533 l -6.88331,-3.45457 z m 33.47186,1.17669 v 7.95248 l -2.33939,1.17409 v -8.28528 l 0.13333,0.2656 z m -8.95294,0.21703 2.33939,1.17409 1e-5,7.88686 -2.3394,-1.17409 z m 24.3396,3.03754 v 7.95352 l -4.31911,2.16783 -10e-6,-7.95352 z m -39.7707,0.12971 4.31861,2.16731 v 7.85534 l -4.31861,-2.16731 z m 33.24707,3.14451 v 7.95352 l -6.65851,3.3414 v -7.953 z m -26.72395,0.12919 6.70346,3.36414 1e-5,7.85533 -6.70347,-3.36413 z m 46.648827,0.84905 1e-5,8.05997 -2.19884,1.1007 v -8.05738 z m -66.575257,0.0305 2.11097,1.05937 1e-5,7.88169 -2.11098,-1.06246 z m 4.3155,2.16576 6.88329,3.45458 1e-5,7.89615 -6.88331,-3.46542 z m 57.856417,0.0134 v 8.05429 l -6.793387,3.39979 v -8.04499 z m -24.384557,1.26039 -1e-5,7.953 -2.33939,1.17409 v -8.2858 l 0.13332,0.26562 z m -8.95294,0.15141 2.33938,1.17408 v 7.85535 l -2.33939,-1.17409 z m 24.33959,3.10368 v 8.0419 l -4.31912,2.16162 v -8.03569 z m -39.7707,0.032 4.3186,2.1673 v 7.90598 l -4.3186,-2.17402 z m 33.24707,3.24218 v 8.03258 l -6.65851,3.33261 v -8.02328 z m -26.72395,0.0315 6.70347,3.36414 -1e-5,7.91992 -6.70346,-3.37447 z m 17.86093,4.41678 -1e-5,8.02018 -2.33939,1.171 v -8.34988 l 0.13332,0.26561 z m -8.95295,0.0537 2.3394,1.1741 v 7.92716 l -2.3394,-1.17771 z" /></g></g></svg>
